<svg width="120" height="33" viewBox="0 0 120 33" fill="none" xmlns="http://www.w3.org/2000/svg">
<path fill-rule="evenodd" clip-rule="evenodd" d="M28.5406 20.6637L25.3882 20.6737L24.9261 21.6517C24.8696 21.767 24.7567 21.8373 24.6232 21.8373H24.2535C24.1354 21.8373 24.0379 21.7821 23.9763 21.6868C23.9147 21.5915 23.9044 21.4812 23.9557 21.3759L26.3329 16.3557C26.3894 16.2404 26.5023 16.1702 26.6358 16.1702H27.2879C27.4213 16.1702 27.5343 16.2404 27.5908 16.3557L29.9679 21.3759C30.0193 21.4812 30.009 21.5915 29.9474 21.6868C29.8858 21.7821 29.7831 21.8373 29.6701 21.8373H29.3107C29.1773 21.8373 29.0643 21.767 29.0078 21.6467L28.5457 20.6587L28.5406 20.6637ZM26.9644 17.3287L25.8349 19.7159H28.0888L26.9593 17.3287H26.9644Z" fill="white"/>
<path fill-rule="evenodd" clip-rule="evenodd" d="M19.0198 20.6698L21.0365 16.3606C21.0936 16.2403 21.208 16.1702 21.3431 16.1702H21.7173C21.8369 16.1702 21.9356 16.2253 21.998 16.3205C22.0604 16.4157 22.0708 16.5259 22.0188 16.6311L19.6487 21.6468C19.5915 21.7671 19.4772 21.8373 19.3421 21.8373H18.682C18.5468 21.8373 18.4325 21.7671 18.3753 21.6468L16.0052 16.6311C15.9585 16.5259 15.9637 16.4157 16.026 16.3205C16.0884 16.2253 16.1923 16.1702 16.3067 16.1702H16.6809C16.8161 16.1702 16.9304 16.2403 16.9876 16.3606L19.0146 20.6748L19.0198 20.6698Z" fill="white"/>
<path fill-rule="evenodd" clip-rule="evenodd" d="M8.43062 16.7802C9.01194 16.2238 9.92544 16.0947 10.7144 16.0947C11.5033 16.0947 12.4116 16.2238 12.9981 16.7802C13.5794 17.3366 13.7144 18.2109 13.7144 18.966C13.7144 19.7211 13.5794 20.5904 12.9981 21.1518C12.4168 21.7082 11.5033 21.8373 10.7144 21.8373C9.92544 21.8373 9.01713 21.7082 8.43062 21.1518C7.8493 20.5954 7.71436 19.7211 7.71436 18.966C7.71436 18.2109 7.8493 17.3416 8.43062 16.7802ZM9.20917 17.4856C8.82509 17.8582 8.74723 18.4643 8.74723 18.961C8.74723 19.4578 8.83028 20.0639 9.20917 20.4364C9.58807 20.804 10.1953 20.8885 10.7092 20.8885C11.223 20.8885 11.8303 20.804 12.2092 20.4364C12.5933 20.0639 12.6711 19.4578 12.6711 18.961C12.6711 18.4643 12.5881 17.8582 12.2092 17.4856C11.8303 17.118 11.223 17.0336 10.7092 17.0336C10.1953 17.0336 9.58807 17.118 9.20917 17.4856Z" fill="white"/>
<path fill-rule="evenodd" clip-rule="evenodd" d="M2.67062 20.8877C3.15153 20.8877 4.05708 20.828 4.05708 20.2115C4.05708 19.9828 3.90872 19.8386 3.7143 19.7342C3.36129 19.5452 2.78317 19.4508 2.38411 19.3861C1.82134 19.2966 1.00788 19.1375 0.537193 18.8143C0.153484 18.5558 0 18.168 0 17.7255C0 16.393 1.24322 16.1046 2.35853 16.0947H4.42544C4.61474 16.0947 4.77334 16.2438 4.77334 16.4328V16.7012C4.77334 16.8852 4.61986 17.0393 4.42544 17.0393H2.36365C1.91855 17.0344 1.01299 17.0741 1.01299 17.6807C1.01299 17.8896 1.13578 18.0238 1.31996 18.1183C1.65251 18.2873 2.20505 18.3768 2.57341 18.4414C3.16688 18.5409 4.01104 18.7149 4.5073 19.048C4.90124 19.3165 5.06496 19.7043 5.06496 20.1618C5.06496 21.5141 3.80128 21.8174 2.67573 21.8373H0.516728C0.327432 21.8373 0.168832 21.6882 0.168832 21.4992V21.2307C0.168832 21.0468 0.322316 20.8926 0.516728 20.8926H2.67062V20.8877Z" fill="white"/>
<path fill-rule="evenodd" clip-rule="evenodd" d="M93.362 20.6392L95.3375 16.4138C95.3941 16.2994 95.5073 16.2248 95.6359 16.2248H96.0012C96.1144 16.2248 96.2173 16.2746 96.279 16.369C96.3407 16.4635 96.351 16.5728 96.2996 16.6722L93.9793 21.5937C93.9228 21.708 93.8147 21.7776 93.681 21.7776H93.0379C92.9041 21.7776 92.7961 21.708 92.7395 21.5937L90.4193 16.6722C90.373 16.5728 90.3781 16.4635 90.4398 16.369C90.5016 16.2746 90.5993 16.2248 90.7176 16.2248H91.0829C91.2167 16.2248 91.3299 16.2944 91.3813 16.4138L93.362 20.6392ZM86.5608 20.2813V16.543C86.5608 16.369 86.71 16.2248 86.89 16.2248H87.245C87.4251 16.2248 87.5743 16.369 87.5743 16.543V21.4644C87.5743 21.6384 87.4251 21.7826 87.245 21.7826H86.7614C86.6637 21.7826 86.5762 21.7428 86.5093 21.6682L83.0418 17.7212V21.4594C83.0418 21.6334 82.8926 21.7776 82.7126 21.7776H82.3576C82.1775 21.7776 82.0283 21.6334 82.0283 21.4594V16.538C82.0283 16.364 82.1775 16.2199 82.3576 16.2199H82.8412C82.9389 16.2199 83.0264 16.2596 83.0933 16.3342L86.5608 20.2813ZM76.5236 20.8927V17.1147H75.721C75.4741 17.1147 75.2734 16.9705 75.2734 16.7965V16.543C75.2734 16.369 75.4741 16.2248 75.721 16.2248H78.3396C78.5866 16.2248 78.7872 16.369 78.7872 16.543V16.7965C78.7872 16.9705 78.5866 17.1147 78.3396 17.1147H77.5371V20.8927H78.3396C78.5866 20.8927 78.7872 21.0369 78.7872 21.2109V21.4644C78.7872 21.6384 78.5866 21.7826 78.3396 21.7826H75.721C75.4741 21.7826 75.2734 21.6384 75.2734 21.4644V21.2109C75.2734 21.0369 75.4741 20.8927 75.721 20.8927H76.5236ZM100.626 17.1594V18.5613H103.831C104.011 18.5613 104.161 18.7054 104.161 18.8794V19.133C104.161 19.3069 104.011 19.4511 103.831 19.4511H100.626V20.853H104.366C104.546 20.853 104.696 20.9971 104.696 21.1711V21.4694C104.696 21.6434 104.546 21.7875 104.366 21.7875H99.942C99.7619 21.7875 99.6127 21.6434 99.6127 21.4694V19.4511H98.9182C98.7381 19.4511 98.5889 19.3069 98.5889 19.133V18.8794C98.5889 18.7054 98.7381 18.5613 98.9182 18.5613H99.6127V16.543C99.6127 16.369 99.7619 16.2248 99.942 16.2248H103.291C103.471 16.2248 103.62 16.369 103.62 16.543V16.8413C103.62 17.0153 103.471 17.1594 103.291 17.1594H100.626ZM109.784 20.9027C110.262 20.9027 111.162 20.843 111.162 20.2316C111.162 20.0079 111.013 19.8637 110.823 19.7593C110.473 19.5754 109.897 19.4809 109.501 19.4163C108.94 19.3268 108.132 19.1678 107.669 18.8546C107.289 18.5961 107.139 18.2183 107.139 17.7808C107.139 16.4635 108.374 16.1801 109.48 16.1702H111.533C111.723 16.1702 111.878 16.3193 111.878 16.5032V16.7667C111.878 16.9506 111.723 17.0998 111.533 17.0998H109.48C109.038 17.0948 108.137 17.1346 108.137 17.7311C108.137 17.9349 108.261 18.0691 108.441 18.1636C108.77 18.3326 109.321 18.4171 109.686 18.4817C110.272 18.5812 111.116 18.7502 111.605 19.0783C112.001 19.3417 112.161 19.7295 112.161 20.1819C112.161 21.5191 110.905 21.8174 109.784 21.8373H107.638C107.448 21.8373 107.294 21.6881 107.294 21.5042V21.2407C107.294 21.0568 107.448 20.9077 107.638 20.9077H109.784V20.9027ZM117.665 17.1594V21.4644C117.665 21.6384 117.516 21.7826 117.336 21.7826H116.981C116.801 21.7826 116.652 21.6384 116.652 21.4644V17.1594H114.645C114.465 17.1594 114.316 17.0153 114.316 16.8413V16.543C114.316 16.369 114.465 16.2248 114.645 16.2248H119.672C119.852 16.2248 120.001 16.369 120.001 16.543V16.8413C120.001 17.0153 119.852 17.1594 119.672 17.1594H117.665Z" fill="white"/>
<path d="M57.9222 16.8174C57.9325 16.8474 57.9429 16.8724 57.948 16.8974C58.3603 17.1022 58.7881 17.2621 59.2211 17.377C60.3962 17.6818 61.6022 17.6468 62.6588 17.2971C63.6999 16.9523 64.5915 16.3078 65.1636 15.3985C65.3131 15.1587 65.442 14.8989 65.545 14.6141C65.1843 14.4342 64.8029 14.2943 64.4112 14.1944C63.2257 13.8846 61.9578 13.9346 60.8394 14.2993C59.7365 14.659 58.7881 15.3185 58.216 16.2279C58.1026 16.4127 57.9995 16.6076 57.9171 16.8174M47.2431 19.1257C47.676 18.9608 48.1038 18.726 48.5264 18.4262C48.377 17.9066 48.1605 17.437 47.9028 17.0273C47.2431 15.993 46.2741 15.2986 45.1557 14.9338C44.0218 14.5641 42.7385 14.5241 41.4912 14.8089C40.8366 14.9538 40.1924 15.1936 39.5842 15.5134C39.8574 16.083 40.1975 16.6126 40.5944 17.0872C41.4242 18.0815 42.4962 18.8209 43.661 19.2006C44.8104 19.5704 46.0525 19.5853 47.2431 19.1257ZM57.8449 20.8344C57.6078 20.7145 57.5151 20.4347 57.6388 20.2049C57.7625 19.9751 58.0511 19.8851 58.2882 20.005C59.0922 20.4097 59.9735 20.6396 60.8755 20.7045C61.8341 20.7745 62.8134 20.6695 63.7411 20.4047C63.9988 20.3348 64.2617 20.4747 64.339 20.7245C64.4112 20.9743 64.2668 21.2291 64.0091 21.3041C62.968 21.5988 61.8754 21.7188 60.8033 21.6388C59.7725 21.5639 58.7623 21.2991 57.8398 20.8344H57.8449ZM43.0116 27.0897C42.8776 26.8649 42.9549 26.5801 43.1869 26.4502C43.4188 26.3203 43.7126 26.3953 43.8466 26.6201C44.7434 28.124 46.0164 29.343 47.5163 30.1824C49.0109 31.0168 50.7324 31.4814 52.526 31.4814C54.8144 31.4814 56.9224 30.737 58.6077 29.4879C60.1694 28.3288 61.3651 26.74 62.0094 24.9014H42.0169C41.7489 24.9014 41.5324 24.6915 41.5324 24.4317C41.5324 24.1719 41.7489 23.9621 42.0169 23.9621H52.0466V22.1884C51.9384 21.329 51.49 20.6695 50.9179 20.1749C50.3767 19.7053 49.7325 19.3705 49.1552 19.1407C48.6553 19.5054 48.1347 19.7902 47.6039 19.99C46.1865 20.5346 44.7176 20.5196 43.3621 20.085C42.0221 19.6503 40.8006 18.8009 39.8522 17.6768C39.3111 17.0323 38.8575 16.2928 38.5276 15.4884C38.44 15.2736 38.5276 15.0338 38.7235 14.9188C39.5224 14.4392 40.3934 14.0995 41.2799 13.8996C42.6972 13.5798 44.161 13.6248 45.465 14.0495C46.7895 14.4842 47.944 15.3035 48.7275 16.5376C49.047 17.0422 49.3047 17.6168 49.4851 18.2613C50.1603 18.5311 50.9231 18.9208 51.5673 19.4804C51.7374 19.6303 51.9023 19.7902 52.0518 19.9651V6.17538L49.7119 8.18887C49.5109 8.35875 49.2068 8.34376 49.0315 8.1489C48.8563 7.95405 48.8718 7.65927 49.0728 7.4894L52.2167 4.78642C52.4023 4.62654 52.6806 4.63153 52.8558 4.78642L55.9946 7.4894C56.1956 7.65927 56.2111 7.95405 56.0359 8.1489C55.8606 8.34376 55.5565 8.35875 55.3555 8.18887L53.0156 6.17538V13.0702C53.2785 13.0502 53.5362 13.0153 53.7836 12.9703C54.1959 12.8904 54.5979 12.7704 54.9741 12.6106C55.3401 12.4607 55.6957 12.2708 56.0307 12.051C56.3657 11.8311 56.675 11.5813 56.9636 11.3065C57.2522 11.0317 57.5099 10.727 57.7315 10.4022C57.9583 10.0775 58.149 9.73272 58.3088 9.37798C58.4686 9.00826 58.5923 8.62355 58.6799 8.22385C58.7623 7.83913 58.8036 7.43444 58.8036 7.01475C58.8036 6.59507 58.7623 6.19037 58.6799 5.80566C58.5974 5.40595 58.4737 5.02124 58.3088 4.65152C58.1542 4.29679 57.9583 3.95204 57.7315 3.62729C57.5048 3.30253 57.2471 3.00275 56.9636 2.72296C56.675 2.44817 56.3657 2.19336 56.0307 1.97852C55.6957 1.75868 55.3401 1.57382 54.9741 1.41894C54.5927 1.26405 54.1959 1.14414 53.7836 1.05921C53.3867 0.979267 52.9692 0.939297 52.5363 0.939297C52.1033 0.939297 51.6859 0.979267 51.289 1.05921C50.8767 1.13915 50.4798 1.25906 50.0984 1.41894C49.7325 1.56883 49.3769 1.75868 49.0419 1.97852C48.7068 2.19836 48.3976 2.44817 48.109 2.72296C47.8203 3.00275 47.5626 3.30253 47.341 3.62729C47.1142 3.95204 46.9235 4.29679 46.7638 4.65152C46.604 5.02124 46.4803 5.40595 46.3927 5.80566C46.3102 6.19037 46.269 6.59507 46.269 7.01475C46.269 7.43444 46.3102 7.83913 46.3927 8.22385C46.4751 8.62355 46.5988 9.00826 46.7638 9.37798C46.9184 9.73272 47.1142 10.0775 47.341 10.4022C47.5678 10.727 47.8255 11.0267 48.109 11.3065C48.3924 11.5863 48.7068 11.8361 49.0419 12.051C49.3769 12.2708 49.7325 12.4607 50.0984 12.6106C50.3458 12.7105 50.4592 12.9853 50.3561 13.2201C50.253 13.4549 49.9696 13.5698 49.7273 13.4699C49.2944 13.2901 48.8821 13.0752 48.5007 12.8304C48.1141 12.5756 47.7533 12.2908 47.4235 11.971C47.0936 11.6513 46.7999 11.3065 46.537 10.9268C46.2793 10.5571 46.0577 10.1624 45.8773 9.73771C45.6917 9.31303 45.5474 8.86836 45.4495 8.40371C45.3567 7.94905 45.3052 7.4794 45.3052 7.00975C45.3052 6.54011 45.3567 6.07046 45.4495 5.6158C45.5474 5.15115 45.6917 4.70648 45.8773 4.2818C46.0628 3.86211 46.2844 3.46241 46.537 3.09269C46.7999 2.71797 47.0936 2.36823 47.4235 2.04847C47.7533 1.72871 48.109 1.44392 48.5007 1.18911C48.8821 0.939297 49.2892 0.724458 49.7273 0.549589C50.1654 0.369723 50.6241 0.229828 51.1035 0.139895C51.5725 0.0499626 52.057 0 52.5414 0C53.0259 0 53.5104 0.0499626 53.9794 0.139895C54.4587 0.234824 54.9174 0.37472 55.3555 0.549589C55.7885 0.729454 56.2008 0.944293 56.5822 1.18911C56.9687 1.44392 57.3295 1.72871 57.6594 2.04847C57.9892 2.36323 58.283 2.71297 58.5459 3.09269C58.8036 3.46241 59.0252 3.85711 59.2056 4.2818C59.3911 4.70648 59.5354 5.15115 59.6282 5.6158C59.721 6.07046 59.7725 6.54011 59.7725 7.00975C59.7725 7.4794 59.721 7.94905 59.6282 8.40371C59.5303 8.86836 59.386 9.31303 59.2056 9.73771C59.02 10.1574 58.7984 10.5571 58.5459 10.9268C58.283 11.3015 57.9892 11.6513 57.6594 11.971C57.3295 12.2858 56.9739 12.5756 56.5822 12.8304C56.2008 13.0802 55.7936 13.2951 55.3555 13.4699C54.9174 13.6498 54.4587 13.7897 53.9794 13.8796C53.665 13.9396 53.3455 13.9845 53.0259 14.0045V20.1199C53.2424 19.7502 53.4846 19.4055 53.7526 19.0957C54.6494 18.0365 55.7988 17.3021 56.9378 16.7575C57.0564 16.3977 57.2161 16.058 57.4171 15.7432C58.1129 14.6291 59.2468 13.8346 60.5559 13.41C61.8496 12.9903 63.3133 12.9303 64.6792 13.2901C65.2564 13.4399 65.8234 13.6698 66.3542 13.9745C66.5552 14.0695 66.6686 14.2943 66.6068 14.5141C66.4676 15.0088 66.2666 15.4684 66.0089 15.8781C65.3183 16.9873 64.2411 17.7667 62.9938 18.1764C61.762 18.5811 60.3601 18.6311 58.9994 18.2763C58.4325 18.1264 57.8707 17.9066 57.3244 17.6168C56.309 18.1065 55.2885 18.766 54.5 19.6903C53.6238 20.7195 53.0311 22.0885 53.0311 23.9521L62.6794 23.9571C62.7206 23.9571 62.7619 23.9621 62.8031 23.9721C63.0608 24.037 63.2154 24.2968 63.1433 24.5466C62.5042 26.8399 61.0971 28.8234 59.2107 30.2274C57.3605 31.5964 55.0514 32.4157 52.5466 32.4157C50.5829 32.4157 48.6965 31.9061 47.0576 30.9868C45.4134 30.0675 44.0218 28.7335 43.0374 27.0847L43.0116 27.0897Z" fill="white"/>
</svg>
