<svg width="20" height="20" viewBox="0 0 20 20" fill="none" xmlns="http://www.w3.org/2000/svg">
<path d="M0.666626 7.33342L0.376007 6.92655L0.166626 7.07611V7.33342H0.666626ZM9.99996 0.666748L10.2906 0.259881C10.1167 0.135704 9.88319 0.135704 9.70934 0.259881L9.99996 0.666748ZM19.3333 7.33342H19.8333V7.07611L19.6239 6.92655L19.3333 7.33342ZM3.33329 11.3334V10.8334H2.83329V11.3334H3.33329ZM8.66663 11.3334H9.16663V10.8334H8.66663V11.3334ZM1.16663 20.0001V7.33342H0.166626V20.0001H1.16663ZM0.957245 7.74028L10.2906 1.07361L9.70934 0.259881L0.376007 6.92655L0.957245 7.74028ZM9.70934 1.07361L19.0427 7.74028L19.6239 6.92655L10.2906 0.259881L9.70934 1.07361ZM18.8333 7.33342V20.0001H19.8333V7.33342H18.8333ZM3.83329 20.0001V11.3334H2.83329V20.0001H3.83329ZM3.33329 11.8334H8.66663V10.8334H3.33329V11.8334ZM8.16663 11.3334V20.0001H9.16663V11.3334H8.16663ZM6.66663 15.8334H8.66663V14.8334H6.66663V15.8334ZM14.8333 10.6667V16.0001H15.8333V10.6667H14.8333ZM17.5 2.66675V6.00008H18.5V2.66675H17.5Z" fill="url(#paint0_linear_374_8941)"/>
<defs>
<linearGradient id="paint0_linear_374_8941" x1="0.666626" y1="0.666748" x2="18.9718" y2="19.3586" gradientUnits="userSpaceOnUse">
<stop stop-color="#A0BA4F"/>
<stop offset="1" stop-color="#7A8E3B"/>
</linearGradient>
</defs>
</svg>
