<svg width="20" height="20" viewBox="0 0 20 20" fill="none" xmlns="http://www.w3.org/2000/svg">
<path d="M2 2.5V2H1.5V2.5H2ZM18 2.5H18.5V2H18V2.5ZM5 16H4.5V16.5H5V16ZM5 6V5.5H4.5V6H5ZM15 6H15.5V5.5H15V6ZM15 16V16.5H15.5V16H15ZM0 19.8334H20V18.8334H0V19.8334ZM10 2H2V3H10V2ZM18 2H10V3H18V2ZM1.5 2.5V19.3334H2.5V2.5H1.5ZM17.5 2.5V19.3334H18.5V2.5H17.5ZM5.5 16V6H4.5V16H5.5ZM5 6.5H11V5.5H5V6.5ZM11 6.5H15V5.5H11V6.5ZM15 15.5H11V16.5H15V15.5ZM11 15.5H5V16.5H11V15.5ZM10.5 6V11H11.5V6H10.5ZM10.5 11V16H11.5V11H10.5ZM14.5 6V11H15.5V6H14.5ZM14.5 11V16H15.5V11H14.5ZM11 11.5H15V10.5H11V11.5Z" fill="url(#paint0_linear_374_8944)"/>
<defs>
<linearGradient id="paint0_linear_374_8944" x1="0" y1="2.5" x2="15.5349" y2="22.0202" gradientUnits="userSpaceOnUse">
<stop stop-color="#A0BA4F"/>
<stop offset="1" stop-color="#7A8E3B"/>
</linearGradient>
</defs>
</svg>
