<svg width="20" height="20" viewBox="0 0 20 20" fill="none" xmlns="http://www.w3.org/2000/svg">
<path d="M2 3.33341V2.83341C1.76166 2.83341 1.55645 3.00164 1.50971 3.23536L2 3.33341ZM18 3.33341L18.4903 3.23536C18.4435 3.00164 18.2383 2.83341 18 2.83341V3.33341ZM19.3333 10.0001V10.5001C19.4831 10.5001 19.625 10.4329 19.72 10.3171C19.815 10.2012 19.853 10.0489 19.8236 9.90202L19.3333 10.0001ZM0.666667 10.0001L0.176376 9.90202C0.146999 10.0489 0.185026 10.2012 0.279996 10.3171C0.374965 10.4329 0.51687 10.5001 0.666667 10.5001V10.0001ZM4.66667 14.0001H4.16667V14.5001H4.66667V14.0001ZM15.3333 14.0001V14.5001H15.8333V14.0001H15.3333ZM0 19.8334H20V18.8334H0V19.8334ZM1.5 10.0001V19.3334H2.5V10.0001H1.5ZM17.5 10.0001V19.3334H18.5V10.0001H17.5ZM2 3.83341H18V2.83341H2V3.83341ZM17.5097 3.43147L18.843 10.0981L19.8236 9.90202L18.4903 3.23536L17.5097 3.43147ZM19.3333 9.50008H0.666667V10.5001H19.3333V9.50008ZM1.15696 10.0981L2.49029 3.43147L1.50971 3.23536L0.176376 9.90202L1.15696 10.0981ZM1.33333 1.16675H18.6667V0.166748H1.33333V1.16675ZM4.16667 10.0001V14.0001H5.16667V10.0001H4.16667ZM4.66667 14.5001H15.3333V13.5001H4.66667V14.5001ZM15.8333 14.0001V10.0001H14.8333V14.0001H15.8333Z" fill="url(#paint0_linear_374_8952)"/>
<defs>
<linearGradient id="paint0_linear_374_8952" x1="0" y1="0.666748" x2="17.5407" y2="20.5427" gradientUnits="userSpaceOnUse">
<stop stop-color="#A0BA4F"/>
<stop offset="1" stop-color="#7A8E3B"/>
</linearGradient>
</defs>
</svg>
