<svg width="173" height="114" viewBox="0 0 173 114" fill="none" xmlns="http://www.w3.org/2000/svg">
<path d="M120.527 9.21047C124.314 11.8149 129.441 14.4637 134.188 13.5534C132.962 8.2812 126.571 5.68305 121.691 5.53134C119.952 5.48077 118.201 5.67673 116.52 6.13188C117.803 7.21919 119.143 8.24959 120.527 9.20415V9.21047ZM147.059 14.5395C147.394 19.9507 148.481 25.9752 152.363 30.0273C156.446 25.3367 154.499 18.5221 151.402 13.8378C150.207 12.0488 148.753 10.4242 147.122 9.02082C146.97 10.8541 146.958 12.7 147.053 14.5395H147.059ZM157.749 27.151C156.472 32.3599 155.839 39.0734 158.393 44.0042C163.994 40.4451 163.76 33.5736 162.249 27.859C161.598 25.7349 160.65 23.6994 159.455 21.8282C158.754 23.554 158.191 25.343 157.749 27.151ZM164.784 42.4111C161.851 47.639 159.803 52.6963 160.283 58.7902C160.283 58.7902 160.372 59.4477 160.385 59.5235C161.162 59.3655 161.75 59.1569 162.452 58.7902C167.503 55.7685 168.843 50.136 168.995 44.6174C168.982 42.2847 168.647 39.9521 168.008 37.7079C166.807 39.1808 165.739 40.7675 164.778 42.4111H164.784ZM167.465 59.612C163.362 63.4745 158.804 69.1765 158.008 74.9291C165.044 75.4095 168.868 69.1006 170.885 63.2532C171.586 61.0596 171.972 58.3856 172.023 55.9266C170.423 57.0202 168.919 58.2402 167.465 59.612ZM165.303 76.9646C160.144 79.3668 154.12 83.4062 151.648 88.7416C158.254 91.3714 163.811 86.5797 167.534 81.554C168.931 79.5059 170.019 77.2554 170.802 74.9101C168.919 75.4348 167.073 76.1491 165.303 76.9709V76.9646ZM158.621 92.8C152.527 93.6724 146.167 95.6447 141.863 100.253C146.338 103.958 151.61 102.592 156.32 100.114C159.468 98.3756 162.483 95.4045 164.538 92.4966C162.566 92.4208 160.574 92.5409 158.615 92.8064L158.621 92.8ZM133.392 5.24687C135.174 9.96905 138.215 15.8418 142.874 18.2945C145.301 12.3839 141.521 7.08643 137.21 3.29984C135.56 1.95967 133.72 0.853406 131.78 0C132.203 1.78267 132.753 3.53373 133.398 5.24687H133.392ZM147.956 106.278C141.97 105.329 134.549 105.557 129.219 108.768C133.322 114.97 141.047 113.908 147.122 111.67C149.518 110.677 151.768 109.331 153.804 107.719C151.914 107.049 149.941 106.587 147.956 106.271V106.278ZM137.052 25.0143C140.067 24.7045 142.419 25.0396 145.112 26.4682C147.305 27.7768 148.74 29.2813 149.556 31.7341C143.677 33.2828 136.881 30.1537 132.368 26.3671C133.853 25.6844 135.427 25.2229 137.052 25.0143ZM144.467 35.0908C149.6 35.6597 154.954 39.3073 155.22 44.8765C149.404 45.1736 142.918 39.9078 139.517 35.3184C141.148 35.0023 142.817 34.9138 144.467 35.0908ZM148.898 46.7414C154.152 48.9666 157.572 52.8417 157.199 58.7839C157.205 58.8218 157.104 59.3908 157.085 59.4729C151.307 58.2213 146.174 51.059 143.936 45.7363C145.63 45.8248 147.305 46.1472 148.898 46.7414ZM150.005 59.3781C154.67 63.0636 157.287 68.1461 154.834 73.9619C149.284 71.3132 146.243 63.0383 145.358 57.0455C147.053 57.6081 148.519 58.3098 150.005 59.3781ZM147.628 71.6482C151.237 75.7888 152.729 82.4454 148.848 86.94C144.119 83.0649 143.019 74.1579 143.607 68.2662C145.105 69.1954 146.471 70.327 147.628 71.6545V71.6482ZM142.185 82.3948C143.475 84.993 144.018 87.1676 143.822 90.0691C143.437 93.3247 142.292 95.7459 139.644 97.7498C136.034 92.4081 136.932 84.0194 139.03 78.0772C140.276 79.3605 141.357 80.8018 142.185 82.3948ZM127.039 17.1503C131.622 15.4498 137.95 16.0946 140.63 20.6777C135.592 23.6425 127.879 21.9989 122.828 19.5146C124.105 18.5221 125.521 17.7192 127.039 17.1566V17.1503ZM134.201 91.1438C135.573 96.8205 133.613 103.54 127.747 105.747C125.382 100.07 128.847 91.1248 132.134 86.0866C133.05 87.667 133.771 89.3611 134.201 91.1375V91.1438Z" fill="#D9D9D9"/>
<path d="M134.257 13.5977C139.314 17.0871 142.867 20.387 146.704 25.185C154.625 35.8178 157.931 45.5277 158.171 58.7903C157.741 71.977 154.321 81.5983 146.268 92.0478C137.746 102.067 129.092 107.409 116.316 110.551C116.449 111.145 116.582 111.739 116.715 112.334C129.876 109.008 138.789 103.439 147.488 93.0213C155.643 82.2242 159.05 72.3247 159.303 58.7903C158.86 45.3317 155.339 35.5207 147.052 24.9069C143.075 20.1784 139.434 16.9607 134.257 13.5977Z" fill="#D9D9D9"/>
<path d="M51.4952 9.21047C47.7086 11.8149 42.5818 14.4637 37.8343 13.5534C39.0607 8.2812 45.4518 5.68305 50.332 5.53134C52.0704 5.48077 53.8215 5.67673 55.503 6.13188C54.2198 7.21919 52.8796 8.24959 51.4952 9.20415V9.21047ZM24.9637 14.5395C24.6287 19.9507 23.5414 25.9752 19.66 30.0273C15.5762 25.3367 17.5233 18.5221 20.6208 13.8378C21.8156 12.0488 23.2695 10.4242 24.9005 9.02082C25.0522 10.8541 25.0649 12.7 24.97 14.5395H24.9637ZM14.274 27.151C15.551 32.3599 16.1831 39.0734 13.6292 44.0042C8.02834 40.4451 8.26224 33.5736 9.77308 27.859C10.4242 25.7349 11.3724 23.6994 12.5672 21.8282C13.2689 23.554 13.8315 25.343 14.274 27.151ZM7.23815 42.4111C10.1713 47.639 12.2195 52.6963 11.7391 58.7902C11.7391 58.7902 11.6506 59.4477 11.6379 59.5235C10.8604 59.3655 10.2725 59.1569 9.57079 58.7902C4.51989 55.7685 3.17973 50.136 3.02801 44.6174C3.04066 42.2847 3.3757 39.9521 4.01417 37.7079C5.21526 39.1808 6.2836 40.7675 7.24447 42.4111H7.23815ZM4.55782 59.612C8.66049 63.4745 13.2183 69.1765 14.0148 74.9291C6.97897 75.4095 3.15444 69.1006 1.13788 63.2532C0.436185 61.0596 0.0505722 58.3856 0 55.9266C1.59935 57.0202 3.10387 58.2402 4.55782 59.612ZM6.71978 76.9646C11.8782 79.3668 17.9026 83.4062 20.3743 88.7416C13.7683 91.3714 8.21167 86.5797 4.48829 81.554C3.09123 79.5059 2.00392 77.2554 1.22005 74.9101C3.10387 75.4348 4.94976 76.1491 6.71978 76.9709V76.9646ZM13.4016 92.8C19.4956 93.6724 25.8551 95.6447 30.16 100.253C25.6844 103.958 20.4122 102.592 15.7027 100.114C12.5546 98.3756 9.53919 95.4045 7.48469 92.4966C9.45701 92.4208 11.4483 92.5409 13.408 92.8064L13.4016 92.8ZM38.6372 5.24687C36.8545 9.96905 33.8139 15.8418 29.1549 18.2945C26.7274 12.3839 30.5077 7.08643 34.819 3.29984C36.4689 1.95967 38.3085 0.853406 40.2492 0C39.8256 1.78267 39.2757 3.53373 38.6309 5.24687H38.6372ZM24.0724 106.278C30.0589 105.329 37.4803 105.557 42.8094 108.768C38.7067 114.97 30.9818 113.908 24.9068 111.67C22.511 110.677 20.2605 109.331 18.225 107.719C20.1151 107.049 22.0874 106.587 24.0724 106.271V106.278ZM34.977 25.0206C31.9616 24.7109 29.61 25.0459 26.9171 26.4746C24.7235 27.7831 23.2885 29.2876 22.473 31.7404C28.3521 33.2892 35.1477 30.16 39.6613 26.3734C38.1757 25.6907 36.6017 25.2292 34.977 25.0206ZM27.5619 35.0971C22.4288 35.6661 17.0744 39.3136 16.8089 44.8829C22.6248 45.18 29.1106 39.9141 32.5116 35.3247C30.8807 35.0086 29.2118 34.9201 27.5619 35.0971ZM23.1305 46.7477C17.8773 48.9729 14.4573 52.848 14.8303 58.7902C14.824 58.8281 14.9251 59.3971 14.9441 59.4793C20.722 58.2276 25.8551 51.0653 28.0866 45.7426C26.3924 45.8311 24.7172 46.1535 23.1242 46.7477H23.1305ZM22.0242 59.3844C17.3589 63.0699 14.7418 68.1524 17.1946 73.9682C22.7449 71.3195 25.7855 63.0446 26.6705 57.0518C24.9764 57.6144 23.5098 58.3161 22.0242 59.3844ZM24.4011 71.6545C20.7915 75.7951 19.2996 82.4517 23.181 86.9463C27.9095 83.0712 29.0095 74.1642 28.4216 68.2725C26.9234 69.2018 25.5579 70.3333 24.4011 71.6609V71.6545ZM29.8439 82.4011C28.5543 84.9993 28.0107 87.1739 28.2067 90.0755C28.5923 93.3311 29.7365 95.7522 32.3852 97.7561C35.9948 92.4144 35.0971 84.0258 32.9984 78.0835C31.753 79.3668 30.6721 80.8081 29.8439 82.4011ZM44.9966 17.1566C40.4135 15.4561 34.0857 16.1009 31.4054 20.684C36.4436 23.6488 44.1559 22.0052 49.2068 19.5209C47.9298 18.5284 46.5138 17.7256 44.9966 17.163V17.1566ZM37.8343 91.1501C36.4626 96.8269 38.4222 103.547 44.2886 105.753C46.6529 100.076 43.1887 91.1312 39.9015 86.0929C38.9849 87.6733 38.2642 89.3674 37.8343 91.1438V91.1501Z" fill="#D9D9D9"/>
<path d="M37.7647 13.5977C32.7074 17.0871 29.1547 20.387 25.3176 25.185C17.3967 35.8178 14.0905 45.5277 13.8503 58.7903C14.2802 71.977 17.7001 81.5983 25.7537 92.0478C34.2752 102.067 42.9293 107.409 55.7051 110.551C55.5724 111.145 55.4396 111.739 55.3069 112.334C42.1455 109.008 33.2321 103.439 24.5337 93.0213C16.3789 82.2242 12.9716 72.3247 12.7188 58.7903C13.1613 45.3317 16.6823 35.5207 24.9699 24.9069C28.9461 20.1784 32.5873 16.9607 37.7647 13.5977Z" fill="#D9D9D9"/>
</svg>
