<svg width="184" height="39" viewBox="0 0 184 39" fill="none" xmlns="http://www.w3.org/2000/svg">
<g clip-path="url(#clip0_1301_962)">
<path fill-rule="evenodd" clip-rule="evenodd" d="M164.456 22.3749L159.008 22.3927L158.21 24.1227C158.112 24.3267 157.917 24.4509 157.687 24.4509H157.048C156.844 24.4509 156.675 24.3533 156.569 24.1848C156.462 24.0162 156.445 23.821 156.533 23.6347L160.641 14.7541C160.738 14.5501 160.934 14.4259 161.164 14.4259H162.291C162.522 14.4259 162.717 14.5501 162.814 14.7541L166.922 23.6347C167.011 23.821 166.993 24.0162 166.887 24.1848C166.78 24.3533 166.603 24.4509 166.408 24.4509H165.786C165.556 24.4509 165.361 24.3267 165.263 24.1138L164.465 22.3661L164.456 22.3749ZM161.732 16.4752L159.78 20.6982H163.675L161.723 16.4752H161.732ZM134.877 16.1115V23.8831C134.877 24.2025 134.62 24.4598 134.301 24.4598H133.68C133.36 24.4598 133.103 24.2025 133.103 23.8831V16.1115H129.599C129.279 16.1115 129.022 15.8542 129.022 15.5348V14.9937C129.022 14.6743 129.279 14.417 129.599 14.417H138.373C138.692 14.417 138.949 14.6743 138.949 14.9937V15.5348C138.949 15.8542 138.692 16.1115 138.373 16.1115H134.868H134.877ZM145.816 16.1115V18.6399H151.405C151.725 18.6399 151.982 18.8972 151.982 19.2166V19.6691C151.982 19.9884 151.725 20.2457 151.405 20.2457H145.816V22.7742H152.346C152.665 22.7742 152.922 23.0315 152.922 23.3508V23.892C152.922 24.2114 152.665 24.4687 152.346 24.4687H144.627C144.308 24.4687 144.051 24.2114 144.051 23.892V20.2546H142.835C142.516 20.2546 142.259 19.9973 142.259 19.6779V19.2255C142.259 18.9061 142.516 18.6488 142.835 18.6488H144.051V15.0114C144.051 14.692 144.308 14.4347 144.627 14.4347H150.474C150.793 14.4347 151.051 14.692 151.051 15.0114V15.5526C151.051 15.872 150.793 16.1292 150.474 16.1292H145.825L145.816 16.1115ZM177.941 22.304L181.232 14.7719C181.321 14.5589 181.525 14.4259 181.756 14.4259H183.424C183.743 14.4259 184 14.6831 184 15.0025V23.8831C184 24.2025 183.743 24.4598 183.424 24.4598H182.803C182.483 24.4598 182.226 24.2025 182.226 23.8831V16.7769L179.032 24.1138C178.934 24.3267 178.739 24.4598 178.509 24.4598H177.382C177.151 24.4598 176.947 24.3267 176.858 24.1138L173.665 16.7769V23.8831C173.665 24.2025 173.407 24.4598 173.088 24.4598H172.467C172.148 24.4598 171.89 24.2025 171.89 23.8831V15.0025C171.89 14.6831 172.148 14.4259 172.467 14.4259H174.135C174.365 14.4259 174.57 14.5589 174.658 14.7719L177.95 22.304H177.941Z" fill="url(#paint0_linear_1301_962)"/>
<path fill-rule="evenodd" clip-rule="evenodd" d="M49.1853 22.3754L43.7381 22.3931L42.9396 24.1231C42.842 24.3271 42.6469 24.4513 42.4162 24.4513H41.7774C41.5734 24.4513 41.4048 24.3538 41.2983 24.1852C41.1919 24.0166 41.1741 23.8214 41.2629 23.6351L45.3705 14.7545C45.4681 14.5505 45.6632 14.4263 45.8939 14.4263H47.0206C47.2513 14.4263 47.4465 14.5505 47.5441 14.7545L51.6517 23.6351C51.7404 23.8214 51.7226 24.0166 51.6162 24.1852C51.5097 24.3538 51.3323 24.4513 51.1371 24.4513H50.5161C50.2854 24.4513 50.0902 24.3271 49.9927 24.1142L49.1853 22.3665V22.3754ZM46.4617 16.4756L44.5099 20.6986H48.4046L46.4528 16.4756H46.4617Z" fill="url(#paint1_linear_1301_962)"/>
<path fill-rule="evenodd" clip-rule="evenodd" d="M32.8162 22.4019L36.2584 14.7722C36.356 14.5593 36.5512 14.4351 36.7818 14.4351H37.4206C37.6246 14.4351 37.7932 14.5326 37.8997 14.7012C38.0061 14.8698 38.0239 15.065 37.9352 15.2513L33.8896 24.1319C33.7921 24.3448 33.5969 24.469 33.3662 24.469H32.2395C32.0088 24.469 31.8137 24.3448 31.7161 24.1319L27.6705 15.2513C27.5907 15.065 27.5996 14.8698 27.706 14.7012C27.8125 14.5326 27.9899 14.4351 28.1851 14.4351H28.8239C29.0545 14.4351 29.2497 14.5593 29.3473 14.7722L32.8073 22.4019H32.8162Z" fill="url(#paint2_linear_1301_962)"/>
<path fill-rule="evenodd" clip-rule="evenodd" d="M14.5231 15.5436C15.5168 14.55 17.0782 14.3193 18.4267 14.3193C19.7752 14.3193 21.3278 14.55 22.3303 15.5436C23.3239 16.5373 23.5546 18.0987 23.5546 19.4472C23.5546 20.7957 23.3239 22.3483 22.3303 23.3508C21.3366 24.3444 19.7752 24.5751 18.4267 24.5751C17.0782 24.5751 15.5256 24.3444 14.5231 23.3508C13.5295 22.3571 13.2988 20.7957 13.2988 19.4472C13.2988 18.0987 13.5295 16.5461 14.5231 15.5436ZM15.8539 16.8034C15.1974 17.4688 15.0643 18.5512 15.0643 19.4383C15.0643 20.3255 15.2063 21.4079 15.8539 22.0732C16.5015 22.7298 17.5395 22.8806 18.4178 22.8806C19.2961 22.8806 20.3341 22.7298 20.9818 22.0732C21.6383 21.4079 21.7713 20.3255 21.7713 19.4383C21.7713 18.5512 21.6294 17.4688 20.9818 16.8034C20.3341 16.1469 19.2961 15.9961 18.4178 15.9961C17.5395 15.9961 16.5015 16.1469 15.8539 16.8034Z" fill="url(#paint3_linear_1301_962)"/>
<path fill-rule="evenodd" clip-rule="evenodd" d="M4.62226 22.8805C5.45621 22.8805 7.02651 22.774 7.02651 21.6739C7.02651 21.2658 6.76923 21.0085 6.4321 20.8222C5.81995 20.4851 4.81744 20.3166 4.12545 20.2012C3.14955 20.0415 1.73895 19.7576 0.922744 19.181C0.257363 18.7196 -0.00878906 18.0276 -0.00878906 17.2381C-0.00878906 14.8604 2.14705 14.3459 4.08109 14.3281H7.66527C7.99353 14.3281 8.26855 14.5943 8.26855 14.9314V15.4105C8.26855 15.7387 8.0024 16.0138 7.66527 16.0138H4.08996C3.31812 16.0049 1.74782 16.0759 1.74782 17.1582C1.74782 17.5308 1.96074 17.7704 2.28012 17.9389C2.85679 18.2406 3.81493 18.4003 4.4537 18.5156C5.48282 18.693 6.94666 19.0035 7.80722 19.5979C8.49035 20.077 8.77424 20.769 8.77424 21.5941C8.77424 24.0072 6.58292 24.5484 4.63113 24.5839H0.887257C0.559003 24.5839 0.283979 24.3177 0.283979 23.9806V23.5015C0.283979 23.1733 0.550131 22.8982 0.887257 22.8982H4.62226V22.8805Z" fill="url(#paint4_linear_1301_962)"/>
<path d="M82.7374 22.1267C82.0188 22.8453 81.034 23.28 79.9428 23.28C78.8516 23.28 77.8668 22.8364 77.1482 22.1267C76.4296 21.4081 75.9949 20.4233 75.9949 19.3321C75.9949 18.2409 76.4385 17.2561 77.1482 16.5375C77.8668 15.8189 78.8516 15.3842 79.9428 15.3842C81.034 15.3842 82.0188 15.8277 82.7374 16.5375C83.456 17.2561 83.8907 18.2409 83.8907 19.3321C83.8907 20.4233 83.4472 21.4081 82.7374 22.1267ZM79.9428 21.2306C80.4663 21.2306 80.9453 21.0177 81.2825 20.6717C81.6285 20.3257 81.8414 19.8555 81.8414 19.3321C81.8414 18.8086 81.6285 18.3384 81.2825 17.9924C80.9365 17.6464 80.4663 17.4335 79.9428 17.4335C79.4194 17.4335 78.9492 17.6464 78.6032 17.9924C78.2572 18.3384 78.0443 18.8086 78.0443 19.3321C78.0443 19.8555 78.2572 20.3346 78.6032 20.6717C78.9492 21.0177 79.4194 21.2306 79.9428 21.2306ZM103.932 22.1267C103.213 22.8453 102.229 23.28 101.137 23.28C100.046 23.28 99.0614 22.8364 98.3428 22.1267C97.6242 21.4081 97.1895 20.4233 97.1895 19.3321C97.1895 18.2409 97.6331 17.2561 98.3428 16.5375C99.0614 15.8189 100.046 15.3842 101.137 15.3842C102.229 15.3842 103.213 15.8277 103.932 16.5375C104.651 17.2561 105.085 18.2409 105.085 19.3321C105.085 20.4233 104.642 21.4081 103.932 22.1267ZM101.137 21.2306C101.661 21.2306 102.131 21.0177 102.477 20.6717C102.823 20.3257 103.036 19.8555 103.036 19.3321C103.036 18.8086 102.823 18.3384 102.477 17.9924C102.131 17.6464 101.661 17.4335 101.137 17.4335C100.614 17.4335 100.135 17.6464 99.7978 17.9924C99.4518 18.3384 99.2389 18.8086 99.2389 19.3321C99.2389 19.8555 99.4518 20.3346 99.7978 20.6717C100.144 21.0177 100.614 21.2306 101.137 21.2306ZM106.079 8.34886L105.449 8.41096C104.118 8.54404 102.734 8.68598 101.359 8.92552C98.1654 9.48444 95.9829 11.0725 94.5368 13.0952C92.5762 15.8366 91.9197 19.3853 91.9197 22.3041C91.9197 22.8719 91.4583 23.3332 90.8906 23.3332C90.3228 23.3332 89.8614 22.8719 89.8614 22.3041C89.8614 19.3853 89.2049 15.8277 87.2443 13.0952C85.7982 11.0725 83.6157 9.48444 80.4219 8.92552C79.0468 8.68598 77.6628 8.54404 76.332 8.41096L76.1191 8.39322L76.0925 8.41983C73.1471 11.3653 71.3284 15.4196 71.3284 19.8821C71.3284 24.3446 73.1559 28.399 76.0925 31.3444C79.0379 34.2898 83.0923 36.1086 87.5548 36.1086H94.6877C99.1502 36.1086 103.205 34.281 106.15 31.3444C109.095 28.4079 110.914 24.3446 110.914 19.8821C110.914 15.4196 109.087 11.3653 106.15 8.41983L106.079 8.34886ZM78.3193 6.55676C79.1444 6.65435 79.9783 6.76081 80.7856 6.90276C84.5827 7.56814 87.191 9.47557 88.921 11.9064C89.7816 13.113 90.4292 14.4526 90.8906 15.8189C91.3519 14.4437 91.9995 13.113 92.8601 11.9064C94.5989 9.47557 97.2072 7.56814 101.004 6.90276C101.936 6.74307 102.912 6.61887 103.87 6.51241C101.253 4.70257 98.0944 3.64683 94.6965 3.64683H87.5637C84.1392 3.64683 80.9453 4.72031 78.3193 6.55676ZM67.966 1.4289C68.1434 0.896591 68.7289 0.603823 69.2701 0.79013C69.8024 0.967565 70.0952 1.5531 69.9089 2.09428C69.2169 4.12591 69.9532 5.05744 71.3905 5.54539C72.4551 5.90913 73.8568 6.09543 75.3916 6.264C78.6298 3.37181 82.8971 1.60633 87.5548 1.60633H94.6877C99.3187 1.60633 103.568 3.35406 106.798 6.21964C108.173 6.05995 109.424 5.87364 110.391 5.54539C111.828 5.05744 112.564 4.11703 111.872 2.09428C111.695 1.56197 111.979 0.976436 112.511 0.79013C113.043 0.612695 113.629 0.896591 113.815 1.4289C115.022 4.94211 113.664 6.59225 111.047 7.4883C110.32 7.73671 109.486 7.91414 108.59 8.04722C111.313 11.241 112.963 15.3753 112.963 19.8821C112.963 24.9124 110.905 29.4814 107.596 32.7905C104.287 36.0997 99.7091 38.1579 94.6877 38.1579H87.5548C82.5245 38.1579 77.9556 36.0997 74.6464 32.7905C71.3372 29.4814 69.279 24.9035 69.279 19.8821C69.279 15.4108 70.9114 11.2943 73.5995 8.10932C72.5438 7.9585 71.5768 7.77219 70.734 7.4883C68.1168 6.59225 66.7683 4.95098 67.966 1.4289Z" fill="url(#paint5_linear_1301_962)"/>
</g>
<defs>
<linearGradient id="paint0_linear_1301_962" x1="129.022" y1="14.417" x2="132.218" y2="32.903" gradientUnits="userSpaceOnUse">
<stop stop-color="#A0BA4F"/>
<stop offset="1" stop-color="#7A8E3B"/>
</linearGradient>
<linearGradient id="paint1_linear_1301_962" x1="41.2061" y1="14.4263" x2="50.6504" y2="24.8901" gradientUnits="userSpaceOnUse">
<stop stop-color="#A0BA4F"/>
<stop offset="1" stop-color="#7A8E3B"/>
</linearGradient>
<linearGradient id="paint2_linear_1301_962" x1="27.6174" y1="14.4351" x2="37.082" y2="24.7845" gradientUnits="userSpaceOnUse">
<stop stop-color="#A0BA4F"/>
<stop offset="1" stop-color="#7A8E3B"/>
</linearGradient>
<linearGradient id="paint3_linear_1301_962" x1="13.2988" y1="14.3193" x2="22.9961" y2="24.5751" gradientUnits="userSpaceOnUse">
<stop stop-color="#A0BA4F"/>
<stop offset="1" stop-color="#7A8E3B"/>
</linearGradient>
<linearGradient id="paint4_linear_1301_962" x1="-0.00878906" y1="14.3281" x2="9.65625" y2="23.082" gradientUnits="userSpaceOnUse">
<stop stop-color="#A0BA4F"/>
<stop offset="1" stop-color="#7A8E3B"/>
</linearGradient>
<linearGradient id="paint5_linear_1301_962" x1="67.5251" y1="0.733887" x2="101.638" y2="45.7874" gradientUnits="userSpaceOnUse">
<stop stop-color="#A0BA4F"/>
<stop offset="1" stop-color="#7A8E3B"/>
</linearGradient>
<clipPath id="clip0_1301_962">
<rect width="184" height="37.4299" fill="white" transform="translate(0 0.728027)"/>
</clipPath>
</defs>
</svg>
