<svg width="113" height="45" viewBox="0 0 113 45" fill="none" xmlns="http://www.w3.org/2000/svg">
<path fill-rule="evenodd" clip-rule="evenodd" d="M13.7428 31.0796H10.1224V28.3935H8.16507V31.0796H4.73153V26.4969L6.64684 25.1141V23.7174C5.64247 23.736 4.06818 23.7174 3.06381 23.7174C0.0974118 23.7033 0.419745 18.6488 3.44687 18.6768H21.8339C22.2963 17.7519 22.4365 17.7939 23.6184 17.7939C24.0248 17.7939 24.4873 17.7612 24.7769 17.9481C25.0292 18.1116 25.1179 18.4573 25.2908 18.6768H32.7792C32.9286 18.6768 33.4378 18.7469 33.6527 18.3031C34.1572 17.2754 34.9561 17.7238 36.6144 17.6304C36.9695 16.8456 36.9648 16.0374 37.843 14.309C42.4024 5.33037 52.4041 8.83865 53.4271 19.6438C54.1092 20.0035 54.9267 20.3959 54.894 21.3956C54.8613 22.3673 54.0157 22.7177 53.4271 23.0493C52.5442 32.1681 44.6401 36.634 39.5388 30.8507C37.4693 28.5056 37.502 27.3564 36.5864 24.9226C35.9324 24.8899 35.1663 24.9553 34.545 24.8946C34.0591 24.8479 33.8115 24.6189 33.6761 24.3854C33.3537 23.8388 33.5453 23.7127 32.7838 23.7127H25.0712C24.9077 24.3246 24.6321 24.647 23.4595 24.6423C22.3244 24.6423 21.9693 24.4041 21.8152 23.7127C19.1337 23.6987 16.4616 23.722 13.7802 23.7127L13.7475 31.0749L13.7428 31.0796Z" stroke="url(#paint0_linear_1132_5756)" stroke-width="1.5" stroke-linecap="round" stroke-linejoin="round"/>
<path fill-rule="evenodd" clip-rule="evenodd" d="M42.1145 21.3118C41.2175 20.5363 40.6523 19.3871 40.657 18.1071C40.6663 15.7807 42.5583 13.9028 44.8847 13.9121C47.2111 13.9215 49.089 15.8181 49.0797 18.1398C49.075 19.4198 48.5004 20.5643 47.5941 21.3305C48.4911 22.1059 49.0563 23.2551 49.0516 24.5351C49.0423 26.8615 47.1503 28.7395 44.8239 28.7301C42.4975 28.7208 40.6196 26.8288 40.6289 24.5024C40.6336 23.2224 41.2082 22.0779 42.1145 21.3118Z" stroke="url(#paint1_linear_1132_5756)" stroke-width="1.5" stroke-linecap="round" stroke-linejoin="round"/>
<path d="M33.3104 11.324C31.7034 7.49805 26.6395 4.40552 21.5195 3.70947" stroke="url(#paint2_linear_1132_5756)" stroke-width="1.5" stroke-linecap="round" stroke-linejoin="round"/>
<path fill-rule="evenodd" clip-rule="evenodd" d="M30.4985 1C29.4567 1.98568 28.8681 3.3264 29.0036 4.73719C29.1391 6.14798 29.9706 7.32987 31.1759 8.07263C32.2176 7.08695 32.8062 5.74623 32.6707 4.33544C32.5353 2.92465 31.7037 1.74277 30.4985 1Z" stroke="url(#paint3_linear_1132_5756)" stroke-width="1.5" stroke-linecap="round" stroke-linejoin="round"/>
<path d="M24.4828 8.30615C24.3286 10.0486 23.3056 11.5715 21.9648 12.4871" stroke="url(#paint4_linear_1132_5756)" stroke-width="1.5" stroke-linecap="round" stroke-linejoin="round"/>
<path fill-rule="evenodd" clip-rule="evenodd" d="M22.0446 3.77466C19.536 3.46167 16.8172 3.95685 14.5983 5.30691C12.3793 6.65697 11.1087 8.59096 10.8984 10.5623C13.407 10.8753 16.1258 10.3801 18.3448 9.03008C20.5637 7.68002 21.8344 5.74603 22.0446 3.77466Z" stroke="url(#paint5_linear_1132_5756)" stroke-width="1.5" stroke-linecap="round" stroke-linejoin="round"/>
<path d="M13.5742 36.6201C14.7748 38.6242 17.5029 41.4785 19.862 42.4688" stroke="url(#paint6_linear_1132_5756)" stroke-width="1.5" stroke-linecap="round" stroke-linejoin="round"/>
<path d="M21.3281 35.6017C21.8326 35.1065 22.3745 34.6768 22.9351 34.3124C23.4957 33.948 24.0843 33.6537 24.6823 33.4248C25.2802 33.1959 25.8922 33.0371 26.5041 32.939" stroke="url(#paint7_linear_1132_5756)" stroke-width="1.5" stroke-linecap="round" stroke-linejoin="round"/>
<path fill-rule="evenodd" clip-rule="evenodd" d="M19.8633 42.469C22.3625 43.9779 25.4971 44.4544 28.5382 43.5248C31.5794 42.5952 33.9104 40.4463 35.1391 37.7976C32.523 36.2186 29.3791 35.8495 26.4641 36.7418C23.423 37.6714 21.0919 39.8203 19.8633 42.469Z" stroke="url(#paint8_linear_1132_5756)" stroke-width="1.5" stroke-linecap="round" stroke-linejoin="round"/>
<path fill-rule="evenodd" clip-rule="evenodd" d="M107.87 12.8L106.24 16.33H109.49L107.86 12.8H107.87ZM72.9498 18.14C73.6498 18.14 74.9598 18.05 74.9598 17.13C74.9598 16.79 74.7498 16.57 74.4598 16.42C73.9498 16.14 73.1098 16 72.5398 15.9C71.7198 15.77 70.5499 15.53 69.8699 15.05C69.3199 14.66 69.0898 14.09 69.0898 13.43C69.0898 11.44 70.8898 11.02 72.4998 11H75.4898C75.7698 11 75.9898 11.23 75.9898 11.5V11.9C75.9898 12.18 75.7598 12.4 75.4898 12.4H72.4998C71.8498 12.4 70.5398 12.45 70.5398 13.35C70.5398 13.66 70.7199 13.86 70.9799 14C71.4599 14.25 72.2599 14.38 72.7999 14.48C73.6599 14.63 74.8798 14.89 75.5998 15.38C76.1698 15.78 76.4099 16.36 76.4099 17.04C76.4099 19.06 74.5798 19.5 72.9498 19.53H69.8198C69.5398 19.53 69.3198 19.3 69.3198 19.03V18.63C69.3198 18.35 69.5498 18.13 69.8198 18.13H72.9498V18.14ZM82.3198 13.07C81.7798 13.62 81.6599 14.53 81.6599 15.27C81.6599 16.01 81.7798 16.92 82.3198 17.47C82.8598 18.02 83.7298 18.14 84.4598 18.14C85.1898 18.14 86.0598 18.02 86.5998 17.47C87.1398 16.92 87.2598 16.01 87.2598 15.27C87.2598 14.53 87.1398 13.62 86.5998 13.07C86.0598 12.52 85.1898 12.4 84.4598 12.4C83.7298 12.4 82.8598 12.52 82.3198 13.07ZM81.2098 12.02C82.0398 11.19 83.3398 11 84.4598 11C85.5798 11 86.8798 11.19 87.7098 12.02C88.5398 12.85 88.7299 14.15 88.7299 15.27C88.7299 16.39 88.5398 17.69 87.7098 18.52C86.8798 19.35 85.5798 19.54 84.4598 19.54C83.3398 19.54 82.0398 19.35 81.2098 18.52C80.3798 17.69 80.1898 16.39 80.1898 15.27C80.1898 14.15 80.3798 12.85 81.2098 12.02ZM96.4799 17.74L99.3498 11.37C99.4298 11.19 99.5898 11.09 99.7898 11.09H100.32C100.49 11.09 100.63 11.17 100.72 11.31C100.81 11.45 100.82 11.61 100.75 11.77L97.3699 19.18C97.2899 19.35 97.1298 19.46 96.9298 19.46H95.9898C95.7998 19.46 95.6299 19.35 95.5499 19.18L92.1698 11.77C92.0998 11.62 92.1098 11.45 92.1998 11.31C92.2898 11.17 92.4298 11.09 92.5998 11.09H93.1298C93.3198 11.09 93.4898 11.2 93.5698 11.37L96.4498 17.74H96.4799ZM110.14 17.72H105.6L104.93 19.18C104.85 19.35 104.69 19.46 104.5 19.46H103.97C103.8 19.46 103.66 19.38 103.57 19.24C103.48 19.1 103.47 18.93 103.54 18.78L106.97 11.37C107.05 11.2 107.21 11.09 107.4 11.09H108.34C108.53 11.09 108.69 11.19 108.77 11.37L112.2 18.78C112.27 18.93 112.26 19.1 112.17 19.24C112.08 19.38 111.94 19.46 111.77 19.46H111.25C111.06 19.46 110.9 19.36 110.82 19.18L110.15 17.72H110.14Z" fill="url(#paint9_linear_1132_5756)"/>
<path fill-rule="evenodd" clip-rule="evenodd" d="M109.449 27.2298V33.7098C109.449 33.9698 109.239 34.1898 108.969 34.1898H108.449C108.189 34.1898 107.969 33.9798 107.969 33.7098V27.2298H105.049C104.789 27.2298 104.569 27.0198 104.569 26.7498V26.2998C104.569 26.0398 104.779 25.8198 105.049 25.8198H112.369C112.629 25.8198 112.849 26.0298 112.849 26.2998V26.7498C112.849 27.0098 112.639 27.2298 112.369 27.2298H109.449ZM82.9088 27.2298V29.3398H87.5687C87.8287 29.3398 88.0488 29.5498 88.0488 29.8198V30.1998C88.0488 30.4598 87.8387 30.6798 87.5687 30.6798H82.9088V32.7898H88.3587C88.6187 32.7898 88.8387 32.9998 88.8387 33.2698V33.7198C88.8387 33.9798 88.6287 34.1998 88.3587 34.1998H81.9187C81.6587 34.1998 81.4388 33.9898 81.4388 33.7198V30.6798H80.4287C80.1687 30.6798 79.9487 30.4698 79.9487 30.1998V29.8198C79.9487 29.5598 80.1587 29.3398 80.4287 29.3398H81.4388V26.2998C81.4388 26.0398 81.6487 25.8198 81.9187 25.8198H86.7988C87.0588 25.8198 87.2787 26.0298 87.2787 26.2998V26.7498C87.2787 27.0098 87.0688 27.2298 86.7988 27.2298H82.9187H82.9088ZM70.8087 29.3398H73.6087C73.9887 29.3398 74.4787 29.2898 74.7787 29.0398C75.2487 28.6498 75.2687 27.9298 74.7787 27.5198C74.4787 27.2698 73.9787 27.2298 73.6087 27.2298H70.8087V29.3398ZM69.3288 30.6798H68.4688C68.1887 30.6798 67.9688 30.4498 67.9688 30.1798V29.8498C67.9688 29.5698 68.1987 29.3498 68.4688 29.3498H69.3288V26.3098C69.3288 26.0498 69.5387 25.8298 69.8087 25.8298H73.6787C74.4087 25.8298 75.3087 25.9298 75.8787 26.4198C76.4387 26.8898 76.5887 27.4898 76.5887 28.1798C76.5887 29.0198 76.3587 29.5698 75.6387 30.0198C76.2687 30.3798 76.5187 31.3898 76.5187 32.1398V33.7198C76.5187 33.9798 76.3088 34.1998 76.0387 34.1998H75.5287C75.2687 34.1998 75.0488 33.9898 75.0488 33.7198V32.1898C75.0488 31.8898 74.9888 31.1298 74.7288 30.9398C74.4488 30.7198 73.9887 30.6798 73.6387 30.6798H70.7887V33.7198C70.7887 33.9798 70.5787 34.1998 70.3087 34.1998H69.7887C69.5287 34.1998 69.3087 33.9898 69.3087 33.7198V30.6798H69.3288ZM99.1188 31.9398V26.2998C99.1188 26.0398 99.3287 25.8198 99.5987 25.8198H100.119C100.379 25.8198 100.599 26.0298 100.599 26.2998V33.7098C100.599 33.9698 100.389 34.1898 100.119 34.1898H99.4187C99.2687 34.1898 99.1487 34.1298 99.0587 34.0198L94.0088 28.0698V33.7098C94.0088 33.9698 93.7987 34.1898 93.5287 34.1898H93.0088C92.7488 34.1898 92.5287 33.9798 92.5287 33.7098V26.2998C92.5287 26.0398 92.7388 25.8198 93.0088 25.8198H93.7087C93.8587 25.8198 93.9787 25.8798 94.0687 25.9898L99.1188 31.9398Z" fill="url(#paint10_linear_1132_5756)"/>
<defs>
<linearGradient id="paint0_linear_1132_5756" x1="1" y1="9.19385" x2="17.5431" y2="48.0821" gradientUnits="userSpaceOnUse">
<stop stop-color="#A0BA4F"/>
<stop offset="1" stop-color="#7A8E3B"/>
</linearGradient>
<linearGradient id="paint1_linear_1132_5756" x1="40.6289" y1="13.9121" x2="53.0414" y2="21.3987" gradientUnits="userSpaceOnUse">
<stop stop-color="#A0BA4F"/>
<stop offset="1" stop-color="#7A8E3B"/>
</linearGradient>
<linearGradient id="paint2_linear_1132_5756" x1="21.5195" y1="3.70947" x2="27.9344" y2="14.2147" gradientUnits="userSpaceOnUse">
<stop stop-color="#A0BA4F"/>
<stop offset="1" stop-color="#7A8E3B"/>
</linearGradient>
<linearGradient id="paint3_linear_1132_5756" x1="28.9844" y1="1" x2="34.6635" y2="4.14685" gradientUnits="userSpaceOnUse">
<stop stop-color="#A0BA4F"/>
<stop offset="1" stop-color="#7A8E3B"/>
</linearGradient>
<linearGradient id="paint4_linear_1132_5756" x1="21.9648" y1="8.30615" x2="25.553" y2="10.5915" gradientUnits="userSpaceOnUse">
<stop stop-color="#A0BA4F"/>
<stop offset="1" stop-color="#7A8E3B"/>
</linearGradient>
<linearGradient id="paint5_linear_1132_5756" x1="10.8984" y1="3.68408" x2="16.6807" y2="13.4651" gradientUnits="userSpaceOnUse">
<stop stop-color="#A0BA4F"/>
<stop offset="1" stop-color="#7A8E3B"/>
</linearGradient>
<linearGradient id="paint6_linear_1132_5756" x1="13.5742" y1="36.6201" x2="19.0678" y2="42.8663" gradientUnits="userSpaceOnUse">
<stop stop-color="#A0BA4F"/>
<stop offset="1" stop-color="#7A8E3B"/>
</linearGradient>
<linearGradient id="paint7_linear_1132_5756" x1="21.3281" y1="32.939" x2="23.312" y2="37.0174" gradientUnits="userSpaceOnUse">
<stop stop-color="#A0BA4F"/>
<stop offset="1" stop-color="#7A8E3B"/>
</linearGradient>
<linearGradient id="paint8_linear_1132_5756" x1="19.8633" y1="36.2661" x2="25.5686" y2="48.1837" gradientUnits="userSpaceOnUse">
<stop stop-color="#A0BA4F"/>
<stop offset="1" stop-color="#7A8E3B"/>
</linearGradient>
<linearGradient id="paint9_linear_1132_5756" x1="69.0898" y1="11" x2="72.014" y2="26.6281" gradientUnits="userSpaceOnUse">
<stop stop-color="#A0BA4F"/>
<stop offset="1" stop-color="#7A8E3B"/>
</linearGradient>
<linearGradient id="paint10_linear_1132_5756" x1="67.9687" y1="25.8198" x2="70.6863" y2="41.2122" gradientUnits="userSpaceOnUse">
<stop stop-color="#A0BA4F"/>
<stop offset="1" stop-color="#7A8E3B"/>
</linearGradient>
</defs>
</svg>
