<svg width="34" height="45" viewBox="0 0 34 45" fill="none" xmlns="http://www.w3.org/2000/svg">
<path d="M33.1967 16.629C33.1967 7.43663 25.7738 0 16.5984 0C7.42291 0 0 7.43663 0 16.629C0 20.4962 1.31519 24.0657 3.53438 26.8843L16.5984 45L29.6623 26.8843C31.8823 24.0657 33.1967 20.4962 33.1967 16.629ZM16.5984 8.72489C20.967 8.72489 24.4871 12.2658 24.4871 16.6282C24.4871 20.9907 20.967 24.5316 16.5984 24.5316C12.2297 24.5316 8.70958 20.9907 8.70958 16.6282C8.70958 12.2658 12.244 8.72489 16.5984 8.72489Z" fill="#2F3740"/>
<circle cx="16.5983" cy="16.5984" r="9.22131" fill="white"/>
</svg>
